<?xml version="1.0" standalone="no"?><!DOCTYPE svg PUBLIC "-//W3C//DTD SVG 1.1//EN" "http://www.w3.org/Graphics/SVG/1.1/DTD/svg11.dtd"><svg t="1700056753822" class="icon" viewBox="0 0 1024 1024" version="1.1" xmlns="http://www.w3.org/2000/svg" p-id="5548" xmlns:xlink="http://www.w3.org/1999/xlink" width="200" height="200"><path d="M859.36 512l106.42-178.78C994.6 284.8 958.96 224 901.76 224H687.92l-111.9-187.96C561.72 12.02 536.86 0 512 0s-49.72 12.02-64.02 36.04L336.08 224H122.22c-57.2 0-92.84 60.8-64.02 109.22L164.64 512 58.2 690.78C29.38 739.2 65.02 800 122.22 800h213.86l111.9 187.96C462.28 1011.98 487.14 1024 512 1024s49.72-12.02 64.02-36.04L687.92 800h213.86c57.2 0 92.84-60.8 64.02-109.22L859.36 512z m-25.56-176l-39.6 66.52L754.6 336h79.2z m-104.78 176l-104.78 176H399.76l-104.78-176 104.76-176h224.5l104.78 176zM512 147.44L557.58 224h-91.14L512 147.44zM190.2 336h79.2l-39.6 66.52L190.2 336z m0 352l39.6-66.52L269.4 688H190.2zM512 876.56L466.42 800h91.14L512 876.56zM754.58 688l39.6-66.52L833.8 688h-79.22z" p-id="5549" fill="#2c2c2c"></path></svg>